<?xml version="1.0" encoding="utf-8"?>
<!-- Svg Vector Icons : http://www.onlinewebfonts.com/icon -->
<!DOCTYPE svg PUBLIC "-//W3C//DTD SVG 1.1//EN" "http://www.w3.org/Graphics/SVG/1.1/DTD/svg11.dtd">
<svg version="1.1" xmlns="http://www.w3.org/2000/svg" xmlns:xlink="http://www.w3.org/1999/xlink" x="0px" y="0px" viewBox="0 0 1000 1000" enable-background="new 0 0 1000 1000" xml:space="preserve">
<metadata> Svg Vector Icons : http://www.onlinewebfonts.com/icon </metadata>
<g><path d="M989.6,639.9c-3.2-26-17.7-46.2-39.8-62c5.5,3.9,10.1,7.2-0.1-0.1c-13.8-9.8-6.5-4.6-0.1-0.1c-54.6-38.9-125.7-30.2-185.2-8.6c-23.8-38.8-24.9-68.5-11.1-110.9c1.8-5.4,0.6-8.3-5-10.7c-13.6-5.8-33.1-2.7-46.7,0.9c-4.7,1.2-8.1,3.6-9.2,8.4c-9.9,46.4-40.2,88.9-66.7,128c-18.6-35.7-17.2-63.3-4.6-100.5c1.5-4.5,0.8-6.9-3.7-9.3c-13.9-7.2-35.2-3.7-49.4,0.5c-16.3,4.8-40.8,85.4-48.6,101.3c-16.3,33.4-30.8,85.5-58.5,112c-23.5-30.3,43.1-98.6,20.8-126c-7.5-9.3-21.2-9-29.8-1.2c2.1-14.6,3.2-24.1-0.6-36.5c-4-13-14.1-20.5-28.9-20.1c-34.4,1-64.8,26.4-85.4,50.5c-19.7,23.2-71.5,37.6-99.4,51.5c-47.9-41.7-151.6-86-154.3-157.1c-2.9-80.1,92.5-134.5,156.2-167c82.8-42.3,210.5-95,304.6-48.7c25,12.3,35,38.6,28.2,63.8c-17.9,65.8-90.3,109.7-153.3,129.8c-31,9.9-65,17.3-97.8,15.4c-43.9-2.6-78.2-29.1-82.8-30.8c-3.9-0.7-3.6,4.3-2.6,7C281.1,539,512,451.4,572.3,390.1c29.1-29.5,46.7-58.1,54.3-103.2c8.8-52.8-29.9-85.8-59.3-99.4c-149.1-69-355.3,21.4-468.1,113.6C50.2,341-11,404.6,17.1,471.3C47.6,543.6,141,580.7,201.8,625C152.6,649.5,91,674.7,59.2,720.6c-18.2,26.3-24.7,54.3-11.1,84.2c24.1,52.8,111.6,29.9,148.5,6.6c33.8-21.3,56.6-49.9,66.4-86.6c8.5-31.8,6.8-64.8-7.4-94.8l54.7-27.7c-14.7,44.2-21.2,99.5,9.3,139.4c12.3,16,44.1,16.6,57.1,0.6c16.9-20.9,28.1-47.2,39.2-71.2c-1.3,17.9-3.6,38.3,2.6,53.9c7.1,17.9,23.2,21.6,39.8,10.2c50.8-34.8,83.1-131.4,108.1-187.7c6.8,24.6,14.3,47,26.7,69.6c3.1,5.6,2.7,9.1-1.5,13.8c-18.5,20.4-62.8,54.5-67.1,82.1c-1,6.5,3.3,12.6,10.9,14.1c29.8,5.9,62.9-4.8,87.1-21.2c25.2-17.1,33.4-40.4,27.3-68c-8.8-39.8,21-84.2,49.4-116.8c5.2,24.7,13,48.5,27.1,70.1c-25,22-62.4,53.1-57,89.8c1.9,13.1,13.7,21.6,27.8,18.6c30.2-6.4,56.3-19.4,75.4-42.4c17.3-20.8,11.1-43.5,3.6-66.3c45.7-13,91.9-15.7,137.5-0.1c22,7.5,39.7,20.1,50.2,39.8c12.9,24.2,5.6,46.5-19.2,62.4c-6.3,4-10.6,7.3-8.5,9.1c2.1,1.7,9.4,4,25.4-6c16-10.1,25.9-23.7,28.4-41.6C990.1,649.8,990.1,644.9,989.6,639.9z M226.2,688.3c-2.6,31.9-18.4,57.8-44.4,78.7c-14.6,11.8-32.7,21.4-50.8,23.1c-18,1.8-32.1-2.8-33.3-21.5c-3.4-52.6,78.3-104.2,123.7-119.7C225.4,662.1,227.3,675.1,226.2,688.3L226.2,688.3z M423.5,549.6c-7.5,42.7-28.4,119.3-61.9,149.9c-4.5,4.1-8.8,3.9-11.1-1.5c-19.8-46.1,7-141,63.3-155.7C420.5,540.7,424.6,543.5,423.5,549.6z M558.1,706.1c16.1-17.2,32.2-34.3,48.4-51.5C608.5,673.8,572.8,711.9,558.1,706.1z M712.6,672.2c-4.5,2.4-14.6,4.8-15,1.6c-2.8-23.1,22.6-47.6,38.4-59.1C744.6,636.5,734.5,660.4,712.6,672.2z"/></g>
</svg>